# xmcd
#
# Track frame offsets: 
#        150
#        10293
#        23495
#        36912
#        51123
#        62980
#        79494
#        100152
#        117573
#        135896
#        151802
#        168818
#        183946
#
# Disc length: 2641 seconds
#
# Revision: 0
# Processed by: cddbd v1.5.2PL0 Copyright (c) Steve Scherf et al.
# Submitted via: ExactAudioCopyFreeDBPlugin 1.0
#
DISCID=9d0a4f0d
DTITLE=Jacquie Walters - Step Into the Light
DYEAR=2006
DGENRE=New Zealand: Country/Blues
TTITLE0=Step Into the Light
TTITLE1=Driving Home
TTITLE2=Follow the Moon
TTITLE3=My Little Girl
TTITLE4=Waiting for the Rain
TTITLE5=Harvest of Tears
TTITLE6=The Look of the World
TTITLE7=Icarus
TTITLE8=Don't Cry
TTITLE9=When the Fire Comes to Town
TTITLE10=Just Like A Cigarette
TTITLE11=Shine On
TTITLE12=The Cockle Song
EXTD=
EXTT0=
EXTT1=
EXTT2=
EXTT3=
EXTT4=
EXTT5=
EXTT6=
EXTT7=
EXTT8=
EXTT9=
EXTT10=
EXTT11=
EXTT12=
PLAYORDER=
